<?xml version="1.0" encoding="utf-8"?>
<!-- Generator: Adobe Illustrator 26.0.3, SVG Export Plug-In . SVG Version: 6.00 Build 0)  -->
<svg version="1.1" id="Layer_1" xmlns="http://www.w3.org/2000/svg" xmlns:xlink="http://www.w3.org/1999/xlink" x="0px" y="0px"
	 viewBox="0 0 512 512" style="enable-background:new 0 0 512 512;" xml:space="preserve">
<style type="text/css">
	.st0{fill:#DFDFDF;}
	.st1{fill:#4A555F;}
	.st2{fill:#F58E6F;}
	.st3{fill:#FFD452;}
	.st4{fill:#71CCE0;}
</style>
<g>
	<rect x="142.7" y="93.1" class="st0" width="310.1" height="404.6"/>
	<g>
		<g>
			<g>
				<path class="st1" d="M44.9,0v433.2h48.4V46h290.4V0H44.9z M377,39.4H86.6v387.2H51.5V6.6H377L377,39.4L377,39.4z"/>
			</g>
		</g>
	</g>
	<g>
		<g>
			<polygon class="st0" points="59.2,14.3 59.2,418.9 78.9,418.9 78.9,31.7 369.3,31.7 369.3,14.3 			"/>
		</g>
	</g>
	<g>
		<g>
			<g>
				<path class="st1" d="M86.6,39.4v433.2H135V85.4h290.4v-46H86.6z M418.8,78.8H128.4V466H93.2V46h325.5V78.8z"/>
			</g>
		</g>
	</g>
	<g>
		<g>
			<polygon class="st0" points="100.9,53.7 100.9,458.3 120.7,458.3 120.7,71.1 411.1,71.1 411.1,53.7 			"/>
		</g>
	</g>
	<g>
		<g>
			<g>
				<path class="st1" d="M128.4,78.8V512h338.7V78.8H128.4z M460.5,505.4H135v-420h325.5L460.5,505.4L460.5,505.4z"/>
			</g>
		</g>
	</g>
	<g>
		<g>
			<g>
				<path class="st1" d="M190.1,315.5v148.7h41.7V315.5H190.1z M225.2,457.6h-28.5V322.1h28.5V457.6z"/>
			</g>
		</g>
	</g>
	<g>
		<g>
			<rect x="204.3" y="329.8" class="st2" width="13.2" height="120.1"/>
		</g>
	</g>
	<g>
		<g>
			<g>
				<path class="st1" d="M248,375.3v88.9h41.7v-88.9H248z M283.1,457.6h-28.5v-75.8h28.5V457.6z"/>
			</g>
		</g>
	</g>
	<g>
		<g>
			<rect x="262.2" y="389.6" class="st3" width="13.2" height="60.4"/>
		</g>
	</g>
	<g>
		<g>
			<g>
				<path class="st1" d="M305.8,345.4v118.8h41.7V345.4H305.8z M341,457.6h-28.5V352H341V457.6z"/>
			</g>
		</g>
	</g>
	<g>
		<g>
			<rect x="320.1" y="359.7" class="st3" width="13.2" height="90.2"/>
		</g>
	</g>
	<g>
		<g>
			<g>
				<path class="st1" d="M363.7,331.6v132.7h41.7V331.6H363.7z M398.9,457.6h-28.5V338.1h28.5V457.6z"/>
			</g>
		</g>
	</g>
	<g>
		<g>
			<rect x="378" y="345.8" class="st4" width="13.2" height="104.1"/>
		</g>
	</g>
	<g>
		<g>
			<g>
				<path class="st1" d="M225.1,246.3l4.5,4.9l4.9-4.5l-4.5-4.9L225.1,246.3z M215.4,255.2l4.5,4.9l4.9-4.5l-4.5-4.9L215.4,255.2z
					 M259.1,215.1l-4.9,4.5l4.5,4.9l4.9-4.5L259.1,215.1z M244.5,228.5l4.5,4.9l4.9-4.5l-4.5-4.9L244.5,228.5z M234.8,237.4l4.5,4.9
					l4.9-4.5l-4.5-4.9L234.8,237.4z"/>
			</g>
		</g>
	</g>
	<g>
		<g>
			<g>
				<path class="st1" d="M315.2,229.9l4.5,4.8l4.8-4.5l-4.5-4.8L315.2,229.9z M305.5,238.9l4.5,4.8l4.8-4.5l-4.5-4.8L305.5,238.9z
					 M334.5,212.1l4.5,4.8l4.8-4.5l-4.5-4.8L334.5,212.1z M324.8,221l4.5,4.8l4.8-4.5l-4.5-4.8L324.8,221z M349.1,198.6l-4.8,4.5
					l4.5,4.8l4.8-4.5L349.1,198.6z"/>
			</g>
		</g>
	</g>
	<g>
		<g>
			<g>
				<path class="st1" d="M293,215.3l-4.8,4.5l4.5,4.8l4.8-4.5L293,215.3z M301.9,225l-4.8,4.5l4.5,4.8l4.8-4.5L301.9,225z"/>
			</g>
		</g>
	</g>
	<g>
		<g>
			<g>
				<path class="st1" d="M276.7,184.8c-9.1,0-16.4,7.4-16.4,16.4s7.4,16.4,16.4,16.4s16.4-7.4,16.4-16.4S285.7,184.8,276.7,184.8z
					 M276.7,211.1c-5.4,0-9.8-4.4-9.8-9.8s4.4-9.8,9.8-9.8c5.4,0,9.8,4.4,9.8,9.8S282.1,211.1,276.7,211.1z"/>
			</g>
		</g>
	</g>
	<g>
		<g>
			<g>
				<path class="st1" d="M368.1,169.6c-9.1,0-16.4,7.4-16.4,16.4s7.4,16.4,16.4,16.4s16.4-7.4,16.4-16.4S377.2,169.6,368.1,169.6z
					 M368.1,195.9c-5.4,0-9.8-4.4-9.8-9.8s4.4-9.8,9.8-9.8c5.4,0,9.8,4.4,9.8,9.8S373.6,195.9,368.1,195.9z"/>
			</g>
		</g>
	</g>
	<g>
		<g>
			<polygon class="st1" points="217.5,287.6 217.5,144.1 210.9,144.1 210.9,294.2 380.3,294.2 380.3,287.6 			"/>
		</g>
	</g>
	<g>
		<g>
			<polygon class="st0" points="142.7,93.1 142.7,497.7 162.5,497.7 162.5,110.6 452.8,110.6 452.8,93.1 			"/>
		</g>
	</g>
</g>
</svg>
